<svg width="94" height="114" viewBox="0 0 94 114" fill="none" xmlns="http://www.w3.org/2000/svg">
<path d="M71.4933 6.67585L1.79248 6.07031L1.0001 97.2785L70.7009 97.8841L71.4933 6.67585Z" fill="white" stroke="#837F9B" stroke-width="2" stroke-linecap="round" stroke-linejoin="round"/>
<path d="M63.3362 6.60468C63.1959 3.37425 60.4693 0.864473 57.2482 1.00538C54.2562 1.13477 51.8509 3.51214 51.67 6.50333L51.5478 20.5743C51.6697 22.8183 53.5746 24.5373 55.8121 24.4148C57.8541 24.3042 59.4916 22.6903 59.6373 20.6446L59.7226 10.8294" stroke="#837F9B" stroke-width="2" stroke-linecap="round" stroke-linejoin="round"/>
<path d="M23.6489 20.2848L11.7015 28.5175L11.5567 45.1893L19.4711 45.258L19.549 36.2872C19.8443 34.0941 21.8582 32.5646 24.0382 32.8605C25.8413 33.1059 27.2502 34.5435 27.4635 36.3559L27.3855 45.3268L35.2999 45.3955L35.4448 28.7238L23.6422 20.2847L23.6489 20.2848Z" fill="#FD366C" stroke="#837F9B" stroke-width="2" stroke-linecap="round" stroke-linejoin="round"/>
<path d="M52.0156 55.8838L60.644 55.9587L52.0156 55.8838Z" fill="#FD366C"/>
<path d="M52.0156 55.8838L60.644 55.9587" stroke="#837F9B" stroke-width="2" stroke-linecap="round" stroke-linejoin="round"/>
<path d="M30.0576 55.6924L44.7347 55.8199L30.0576 55.6924Z" fill="#FD366C"/>
<path d="M30.0576 55.6924L44.7347 55.8199" stroke="#837F9B" stroke-width="2" stroke-linecap="round" stroke-linejoin="round"/>
<path d="M11.4668 55.5312L22.2304 55.6248L11.4668 55.5312Z" fill="#FD366C"/>
<path d="M11.4668 55.5312L22.2304 55.6248" stroke="#837F9B" stroke-width="2" stroke-linecap="round" stroke-linejoin="round"/>
<path d="M42.7544 68.2061L60.5366 68.3605L42.7544 68.2061Z" fill="#FD366C"/>
<path d="M42.7544 68.2061L60.5366 68.3605" stroke="#837F9B" stroke-width="2" stroke-linecap="round" stroke-linejoin="round"/>
<path d="M11.3594 67.9336L35.9513 68.1472L11.3594 67.9336Z" fill="#FD366C"/>
<path d="M11.3594 67.9336L35.9513 68.1472" stroke="#837F9B" stroke-width="2" stroke-linecap="round" stroke-linejoin="round"/>
<path d="M11.2515 80.3164L45.435 80.6134L11.2515 80.3164Z" fill="#FD366C"/>
<path d="M11.2515 80.3164L45.435 80.6134" stroke="#837F9B" stroke-width="2" stroke-linecap="round" stroke-linejoin="round"/>
<path d="M73.3267 112.762C83.7427 112.853 92.2601 104.458 92.3509 94.0117C92.4416 83.5655 84.0714 75.0239 73.6553 74.9334C63.2393 74.8429 54.7218 83.2378 54.6311 93.684C54.5403 104.13 62.9106 112.672 73.3267 112.762Z" fill="#41F8B6"/>
<path d="M73.3267 112.762C83.7427 112.853 92.2601 104.458 92.3509 94.0117C92.4416 83.5655 84.0714 75.0239 73.6553 74.9334C63.2393 74.8429 54.7218 83.2378 54.6311 93.684C54.5403 104.13 62.9106 112.672 73.3267 112.762Z" stroke="#837F9B" stroke-width="2" stroke-linecap="round" stroke-linejoin="round"/>
<path d="M66.2708 95.2917L70.4506 99.5571L80.7304 89.4318" stroke="#837F9B" stroke-width="4.7" stroke-linecap="round" stroke-linejoin="round"/>
</svg>
