<svg width="31" height="31" viewBox="0 0 31 31" fill="none" xmlns="http://www.w3.org/2000/svg">
<mask id="mask0_2216_2571" style="mask-type:alpha" maskUnits="userSpaceOnUse" x="0" y="0" width="31" height="31">
<rect width="31" height="31" fill="#D9D9D9"/>
</mask>
<g mask="url(#mask0_2216_2571)">
<path d="M7.55592 22.0882C8.65384 21.2486 9.88093 20.5866 11.2372 20.1022C12.5934 19.6178 14.0143 19.3757 15.4997 19.3757C16.9851 19.3757 18.4059 19.6178 19.7622 20.1022C21.1184 20.5866 22.3455 21.2486 23.4434 22.0882C24.1969 21.2055 24.7835 20.2045 25.2033 19.085C25.6231 17.9656 25.833 16.7708 25.833 15.5007C25.833 12.6375 24.8266 10.1994 22.8137 8.18659C20.8009 6.17374 18.3629 5.16732 15.4997 5.16732C12.6365 5.16732 10.1985 6.17374 8.18561 8.18659C6.17277 10.1994 5.16634 12.6375 5.16634 15.5007C5.16634 16.7708 5.37624 17.9656 5.79603 19.085C6.21582 20.2045 6.80245 21.2055 7.55592 22.0882ZM12.2867 15.4845C11.4148 14.6126 10.9788 13.5416 10.9788 12.2715C10.9788 11.0013 11.4148 9.93034 12.2867 9.05846C13.1585 8.18659 14.2295 7.75065 15.4997 7.75065C16.7698 7.75065 17.8408 8.18659 18.7127 9.05846C19.5846 9.93034 20.0205 11.0013 20.0205 12.2715C20.0205 13.5416 19.5846 14.6126 18.7127 15.4845C17.8408 16.3564 16.7698 16.7923 15.4997 16.7923C14.2295 16.7923 13.1585 16.3564 12.2867 15.4845ZM15.4997 28.4173C13.7129 28.4173 12.0337 28.0783 10.4622 27.4001C8.89065 26.722 7.52363 25.8017 6.36113 24.6392C5.19863 23.4767 4.27832 22.1097 3.6002 20.5382C2.92207 18.9666 2.58301 17.2875 2.58301 15.5007C2.58301 13.7138 2.92207 12.0347 3.6002 10.4632C4.27832 8.89162 5.19863 7.52461 6.36113 6.36211C7.52363 5.19961 8.89065 4.2793 10.4622 3.60117C12.0337 2.92305 13.7129 2.58398 15.4997 2.58398C17.2865 2.58398 18.9656 2.92305 20.5372 3.60117C22.1087 4.2793 23.4757 5.19961 24.6382 6.36211C25.8007 7.52461 26.721 8.89162 27.3992 10.4632C28.0773 12.0347 28.4163 13.7138 28.4163 15.5007C28.4163 17.2875 28.0773 18.9666 27.3992 20.5382C26.721 22.1097 25.8007 23.4767 24.6382 24.6392C23.4757 25.8017 22.1087 26.722 20.5372 27.4001C18.9656 28.0783 17.2865 28.4173 15.4997 28.4173ZM18.7288 25.3335C19.7406 24.9998 20.6663 24.5208 21.5059 23.8965C20.6663 23.2722 19.7406 22.7932 18.7288 22.4595C17.717 22.1258 16.6406 21.959 15.4997 21.959C14.3587 21.959 13.2823 22.1258 12.2705 22.4595C11.2587 22.7932 10.333 23.2722 9.49342 23.8965C10.333 24.5208 11.2587 24.9998 12.2705 25.3335C13.2823 25.6671 14.3587 25.834 15.4997 25.834C16.6406 25.834 17.717 25.6671 18.7288 25.3335ZM16.8882 13.66C17.2542 13.2941 17.4372 12.8312 17.4372 12.2715C17.4372 11.7118 17.2542 11.2489 16.8882 10.8829C16.5222 10.517 16.0594 10.334 15.4997 10.334C14.94 10.334 14.4771 10.517 14.1111 10.8829C13.7452 11.2489 13.5622 11.7118 13.5622 12.2715C13.5622 12.8312 13.7452 13.2941 14.1111 13.66C14.4771 14.026 14.94 14.209 15.4997 14.209C16.0594 14.209 16.5222 14.026 16.8882 13.66Z" fill="#0F0054"/>
</g>
</svg>
